<?xml version="1.0" encoding="UTF-8" standalone="no"?>
<!DOCTYPE svg PUBLIC "-//W3C//DTD SVG 1.1//EN"
 "http://www.w3.org/Graphics/SVG/1.1/DTD/svg11.dtd">
<!-- Generated by graphviz version 2.26.3 (20100126.1600)
 -->
<!-- Title: controllers_diagram Pages: 1 -->
<svg width="545pt" height="547pt"
 viewBox="0.00 0.00 545.00 547.00" xmlns="http://www.w3.org/2000/svg" xmlns:xlink="http://www.w3.org/1999/xlink">
<g id="graph1" class="graph" transform="scale(1 1) rotate(0) translate(4 543)">
<title>controllers_diagram</title>
<polygon fill="none" stroke="none" points="-4,5 -4,-543 542,-543 542,5 -4,5"/>
<!-- _diagram_info -->
<g id="node1" class="node"><title>_diagram_info</title>
<text text-anchor="start" x="294" y="-496.3" font-family="Times Roman,serif" font-size="13.00">Controllers diagram</text>
<text text-anchor="start" x="294" y="-479.3" font-family="Times Roman,serif" font-size="13.00">Date: Nov 26 2015 &#45; 11:51</text>
<text text-anchor="start" x="294" y="-462.3" font-family="Times Roman,serif" font-size="13.00">Migration version: 20151125115824</text>
<text text-anchor="start" x="294" y="-445.3" font-family="Times Roman,serif" font-size="13.00">Generated by RailRoady 1.4.1</text>
<text text-anchor="start" x="294" y="-428.3" font-family="Times Roman,serif" font-size="13.00">http://railroady.prestonlee.com</text>
</g>
<!-- HomeController -->
<g id="node2" class="node"><title>HomeController</title>
<polyline fill="none" stroke="black" points="32,-381.5 133,-381.5 "/>
<path fill="none" stroke="black" d="M133,-381.5C139,-381.5 145,-387.5 145,-393.5"/>
<polyline fill="none" stroke="black" points="145,-393.5 145,-525.5 "/>
<path fill="none" stroke="black" d="M145,-525.5C145,-531.5 139,-537.5 133,-537.5"/>
<polyline fill="none" stroke="black" points="133,-537.5 32,-537.5 "/>
<path fill="none" stroke="black" d="M32,-537.5C26,-537.5 20,-531.5 20,-525.5"/>
<polyline fill="none" stroke="black" points="20,-525.5 20,-393.5 "/>
<path fill="none" stroke="black" d="M20,-393.5C20,-387.5 26,-381.5 32,-381.5"/>
<text text-anchor="middle" x="82.5" y="-520.9" font-family="Times Roman,serif" font-size="14.00">HomeController</text>
<polyline fill="none" stroke="black" points="20,-511.5 145,-511.5 "/>
<text text-anchor="start" x="28" y="-494.9" font-family="Times Roman,serif" font-size="14.00">full_activity</text>
<text text-anchor="start" x="28" y="-476.9" font-family="Times Roman,serif" font-size="14.00">index</text>
<text text-anchor="start" x="28" y="-458.9" font-family="Times Roman,serif" font-size="14.00">login_activity</text>
<text text-anchor="start" x="28" y="-440.9" font-family="Times Roman,serif" font-size="14.00">my_profile</text>
<polyline fill="none" stroke="black" points="20,-431.5 145,-431.5 "/>
<polyline fill="none" stroke="black" points="20,-407.5 145,-407.5 "/>
<text text-anchor="start" x="28" y="-390.9" font-family="Times Roman,serif" font-size="14.00">_layout</text>
</g>
<!-- AddressesController -->
<g id="node3" class="node"><title>AddressesController</title>
<polyline fill="none" stroke="black" points="13,-96.5 144,-96.5 "/>
<path fill="none" stroke="black" d="M144,-96.5C150,-96.5 156,-102.5 156,-108.5"/>
<polyline fill="none" stroke="black" points="156,-108.5 156,-330.5 "/>
<path fill="none" stroke="black" d="M156,-330.5C156,-336.5 150,-342.5 144,-342.5"/>
<polyline fill="none" stroke="black" points="144,-342.5 13,-342.5 "/>
<path fill="none" stroke="black" d="M13,-342.5C7,-342.5 1,-336.5 1,-330.5"/>
<polyline fill="none" stroke="black" points="1,-330.5 1,-108.5 "/>
<path fill="none" stroke="black" d="M1,-108.5C1,-102.5 7,-96.5 13,-96.5"/>
<text text-anchor="middle" x="78.5" y="-325.9" font-family="Times Roman,serif" font-size="14.00">AddressesController</text>
<polyline fill="none" stroke="black" points="1,-316.5 156,-316.5 "/>
<text text-anchor="start" x="9" y="-299.9" font-family="Times Roman,serif" font-size="14.00">create</text>
<text text-anchor="start" x="9" y="-281.9" font-family="Times Roman,serif" font-size="14.00">edit</text>
<text text-anchor="start" x="9" y="-263.9" font-family="Times Roman,serif" font-size="14.00">index</text>
<text text-anchor="start" x="9" y="-245.9" font-family="Times Roman,serif" font-size="14.00">my_address</text>
<text text-anchor="start" x="9" y="-227.9" font-family="Times Roman,serif" font-size="14.00">new</text>
<text text-anchor="start" x="9" y="-209.9" font-family="Times Roman,serif" font-size="14.00">show</text>
<text text-anchor="start" x="9" y="-191.9" font-family="Times Roman,serif" font-size="14.00">update</text>
<polyline fill="none" stroke="black" points="1,-182.5 156,-182.5 "/>
<polyline fill="none" stroke="black" points="1,-158.5 156,-158.5 "/>
<text text-anchor="start" x="9" y="-141.9" font-family="Times Roman,serif" font-size="14.00">_layout</text>
<text text-anchor="start" x="9" y="-123.9" font-family="Times Roman,serif" font-size="14.00">address_params</text>
<text text-anchor="start" x="9" y="-105.9" font-family="Times Roman,serif" font-size="14.00">set_address</text>
</g>
<!-- ApplicationController -->
<g id="node4" class="node"><title>ApplicationController</title>
<polyline fill="none" stroke="black" points="355,-134.5 492,-134.5 "/>
<path fill="none" stroke="black" d="M492,-134.5C498,-134.5 504,-140.5 504,-146.5"/>
<polyline fill="none" stroke="black" points="504,-146.5 504,-222.5 "/>
<path fill="none" stroke="black" d="M504,-222.5C504,-228.5 498,-234.5 492,-234.5"/>
<polyline fill="none" stroke="black" points="492,-234.5 355,-234.5 "/>
<path fill="none" stroke="black" d="M355,-234.5C349,-234.5 343,-228.5 343,-222.5"/>
<polyline fill="none" stroke="black" points="343,-222.5 343,-146.5 "/>
<path fill="none" stroke="black" d="M343,-146.5C343,-140.5 349,-134.5 355,-134.5"/>
<text text-anchor="middle" x="423.5" y="-217.9" font-family="Times Roman,serif" font-size="14.00">ApplicationController</text>
<polyline fill="none" stroke="black" points="343,-208.5 504,-208.5 "/>
<polyline fill="none" stroke="black" points="343,-184.5 504,-184.5 "/>
<polyline fill="none" stroke="black" points="343,-160.5 504,-160.5 "/>
<text text-anchor="start" x="351" y="-143.9" font-family="Times Roman,serif" font-size="14.00">_layout</text>
</g>
<!-- RegistrationsController -->
<g id="node5" class="node"><title>RegistrationsController</title>
<polyline fill="none" stroke="black" points="203,-1.5 355,-1.5 "/>
<path fill="none" stroke="black" d="M355,-1.5C361,-1.5 367,-7.5 367,-13.5"/>
<polyline fill="none" stroke="black" points="367,-13.5 367,-91.5 "/>
<path fill="none" stroke="black" d="M367,-91.5C367,-97.5 361,-103.5 355,-103.5"/>
<polyline fill="none" stroke="black" points="355,-103.5 203,-103.5 "/>
<path fill="none" stroke="black" d="M203,-103.5C197,-103.5 191,-97.5 191,-91.5"/>
<polyline fill="none" stroke="black" points="191,-91.5 191,-13.5 "/>
<path fill="none" stroke="black" d="M191,-13.5C191,-7.5 197,-1.5 203,-1.5"/>
<text text-anchor="middle" x="279" y="-86.9" font-family="Times Roman,serif" font-size="14.00">RegistrationsController</text>
<polyline fill="none" stroke="black" points="191,-77.5 367,-77.5 "/>
<text text-anchor="start" x="199" y="-60.9" font-family="Times Roman,serif" font-size="14.00">sign_up_params</text>
<polyline fill="none" stroke="black" points="191,-51.5 367,-51.5 "/>
<polyline fill="none" stroke="black" points="191,-27.5 367,-27.5 "/>
<text text-anchor="start" x="199" y="-10.9" font-family="Times Roman,serif" font-size="14.00">_layout</text>
</g>
<!-- PostsController -->
<g id="node6" class="node"><title>PostsController</title>
<polyline fill="none" stroke="black" points="203,-134.5 301,-134.5 "/>
<path fill="none" stroke="black" d="M301,-134.5C307,-134.5 313,-140.5 313,-146.5"/>
<polyline fill="none" stroke="black" points="313,-146.5 313,-368.5 "/>
<path fill="none" stroke="black" d="M313,-368.5C313,-374.5 307,-380.5 301,-380.5"/>
<polyline fill="none" stroke="black" points="301,-380.5 203,-380.5 "/>
<path fill="none" stroke="black" d="M203,-380.5C197,-380.5 191,-374.5 191,-368.5"/>
<polyline fill="none" stroke="black" points="191,-368.5 191,-146.5 "/>
<path fill="none" stroke="black" d="M191,-146.5C191,-140.5 197,-134.5 203,-134.5"/>
<text text-anchor="middle" x="252" y="-363.9" font-family="Times Roman,serif" font-size="14.00">PostsController</text>
<polyline fill="none" stroke="black" points="191,-354.5 313,-354.5 "/>
<text text-anchor="start" x="199" y="-337.9" font-family="Times Roman,serif" font-size="14.00">create</text>
<text text-anchor="start" x="199" y="-319.9" font-family="Times Roman,serif" font-size="14.00">destroy</text>
<text text-anchor="start" x="199" y="-301.9" font-family="Times Roman,serif" font-size="14.00">edit</text>
<text text-anchor="start" x="199" y="-283.9" font-family="Times Roman,serif" font-size="14.00">index</text>
<text text-anchor="start" x="199" y="-265.9" font-family="Times Roman,serif" font-size="14.00">new</text>
<text text-anchor="start" x="199" y="-247.9" font-family="Times Roman,serif" font-size="14.00">show</text>
<text text-anchor="start" x="199" y="-229.9" font-family="Times Roman,serif" font-size="14.00">update</text>
<polyline fill="none" stroke="black" points="191,-220.5 313,-220.5 "/>
<polyline fill="none" stroke="black" points="191,-196.5 313,-196.5 "/>
<text text-anchor="start" x="199" y="-179.9" font-family="Times Roman,serif" font-size="14.00">_layout</text>
<text text-anchor="start" x="199" y="-161.9" font-family="Times Roman,serif" font-size="14.00">post_params</text>
<text text-anchor="start" x="199" y="-143.9" font-family="Times Roman,serif" font-size="14.00">set_post</text>
</g>
</g>
</svg>
