<?xml version="1.0" encoding="UTF-8" standalone="no"?>
<!DOCTYPE svg PUBLIC "-//W3C//DTD SVG 1.1//EN"
 "http://www.w3.org/Graphics/SVG/1.1/DTD/svg11.dtd">
<!-- Generated by graphviz version 2.26.3 (20100126.1600)
 -->
<!-- Title: models_diagram Pages: 1 -->
<svg width="505pt" height="270pt"
 viewBox="0.00 0.00 505.00 270.00" xmlns="http://www.w3.org/2000/svg" xmlns:xlink="http://www.w3.org/1999/xlink">
<g id="graph1" class="graph" transform="scale(1 1) rotate(0) translate(4 266)">
<title>models_diagram</title>
<polygon fill="none" stroke="none" points="-4,5 -4,-266 502,-266 502,5 -4,5"/>
<!-- _diagram_info -->
<g id="node1" class="node"><title>_diagram_info</title>
<text text-anchor="start" x="8" y="-245.8" font-family="Times Roman,serif" font-size="13.00">Models diagram</text>
<text text-anchor="start" x="8" y="-228.8" font-family="Times Roman,serif" font-size="13.00">Date: Nov 26 2015 &#45; 11:51</text>
<text text-anchor="start" x="8" y="-211.8" font-family="Times Roman,serif" font-size="13.00">Migration version: 20151125115824</text>
<text text-anchor="start" x="8" y="-194.8" font-family="Times Roman,serif" font-size="13.00">Generated by RailRoady 1.4.1</text>
<text text-anchor="start" x="8" y="-177.8" font-family="Times Roman,serif" font-size="13.00">http://railroady.prestonlee.com</text>
</g>
<!-- Feed -->
<g id="node2" class="node"><title>Feed</title>
<ellipse fill="none" stroke="black" cx="344" cy="-111" rx="34.1461" ry="18.3848"/>
<text text-anchor="middle" x="344" y="-107.4" font-family="Times Roman,serif" font-size="14.00">Feed</text>
</g>
<!-- Post -->
<g id="node3" class="node"><title>Post</title>
<ellipse fill="none" stroke="black" cx="260" cy="-111" rx="32.0265" ry="18.3848"/>
<text text-anchor="middle" x="260" y="-107.4" font-family="Times Roman,serif" font-size="14.00">Post</text>
</g>
<!-- User -->
<g id="node4" class="node"><title>User</title>
<ellipse fill="none" stroke="black" cx="302" cy="-215" rx="33.9411" ry="18.3848"/>
<text text-anchor="middle" x="302" y="-211.4" font-family="Times Roman,serif" font-size="14.00">User</text>
</g>
<!-- User&#45;&gt;Feed -->
<g id="edge2" class="edge"><title>User&#45;&gt;Feed</title>
<path fill="none" stroke="#1597b8" d="M312.374,-189.312C318.55,-174.02 326.39,-154.606 332.719,-138.934"/>
<ellipse fill="none" stroke="#1597b8" cx="310.814" cy="-193.176" rx="4.00001" ry="4.00001"/>
<polygon fill="#1597b8" stroke="#1597b8" points="332.882,-138.529 340.8,-130.942 334.755,-133.893 336.627,-129.257 336.627,-129.257 336.627,-129.257 334.755,-133.893 332.454,-127.572 332.882,-138.529 332.882,-138.529"/>
</g>
<!-- User&#45;&gt;Post -->
<g id="edge6" class="edge"><title>User&#45;&gt;Post</title>
<path fill="none" stroke="#91217c" d="M291.626,-189.312C285.45,-174.02 277.61,-154.606 271.281,-138.934"/>
<ellipse fill="none" stroke="#91217c" cx="293.186" cy="-193.176" rx="4.00001" ry="4.00001"/>
<polygon fill="#91217c" stroke="#91217c" points="271.118,-138.529 271.546,-127.572 269.245,-133.893 267.373,-129.257 267.373,-129.257 267.373,-129.257 269.245,-133.893 263.2,-130.942 271.118,-138.529 271.118,-138.529"/>
</g>
<!-- Address -->
<g id="node6" class="node"><title>Address</title>
<ellipse fill="none" stroke="black" cx="446" cy="-111" rx="50.2046" ry="18.3848"/>
<text text-anchor="middle" x="446" y="-107.4" font-family="Times Roman,serif" font-size="14.00">Address</text>
</g>
<!-- User&#45;&gt;Address -->
<g id="edge8" class="edge"><title>User&#45;&gt;Address</title>
<path fill="none" stroke="#09f813" d="M329.204,-195.352C354.096,-177.375 390.84,-150.838 416.445,-132.345"/>
<ellipse fill="none" stroke="#09f813" cx="325.874" cy="-197.757" rx="4.00002" ry="4.00002"/>
<ellipse fill="#09f813" stroke="#09f813" cx="419.783" cy="-129.934" rx="4.00002" ry="4.00002"/>
</g>
<!-- Visit -->
<g id="node7" class="node"><title>Visit</title>
<ellipse fill="none" stroke="black" cx="177" cy="-111" rx="33.234" ry="18.3848"/>
<text text-anchor="middle" x="177" y="-107.4" font-family="Times Roman,serif" font-size="14.00">Visit</text>
</g>
<!-- User&#45;&gt;Visit -->
<g id="edge4" class="edge"><title>User&#45;&gt;Visit</title>
<path fill="none" stroke="#e46074" d="M282.497,-191.649C275.445,-183.772 267.194,-175.167 259,-168 243.144,-154.132 223.868,-140.588 207.99,-130.185"/>
<ellipse fill="none" stroke="#e46074" cx="285.472" cy="-195.04" rx="4.00002" ry="4.00002"/>
<polygon fill="#e46074" stroke="#e46074" points="207.964,-130.168 202.002,-120.965 203.763,-127.457 199.562,-124.746 199.562,-124.746 199.562,-124.746 203.763,-127.457 197.122,-128.527 207.964,-130.168 207.964,-130.168"/>
</g>
<!-- Ahoy::Event -->
<g id="node5" class="node"><title>Ahoy::Event</title>
<ellipse fill="none" stroke="black" cx="177" cy="-19" rx="70.9184" ry="18.3848"/>
<text text-anchor="middle" x="177" y="-15.4" font-family="Times Roman,serif" font-size="14.00">Ahoy::Event</text>
</g>
<!-- Visit&#45;&gt;Ahoy::Event -->
<g id="edge10" class="edge"><title>Visit&#45;&gt;Ahoy::Event</title>
<path fill="none" stroke="#9a82bd" d="M177,-84.029C177,-72.5994 177,-59.2671 177,-47.6601"/>
<ellipse fill="none" stroke="#9a82bd" cx="177" cy="-88.3824" rx="4" ry="4"/>
<polygon fill="#9a82bd" stroke="#9a82bd" points="177,-47.5899 181.5,-37.5898 177,-42.5899 177,-37.5899 177,-37.5899 177,-37.5899 177,-42.5899 172.5,-37.5899 177,-47.5899 177,-47.5899"/>
<text text-anchor="middle" x="221" y="-61.4" font-family="Times Roman,serif" font-size="14.00">ahoy_events</text>
</g>
<!-- Country -->
<g id="node8" class="node"><title>Country</title>
<ellipse fill="none" stroke="black" cx="446" cy="-215" rx="51.1176" ry="18.3848"/>
<text text-anchor="middle" x="446" y="-211.4" font-family="Times Roman,serif" font-size="14.00">Country</text>
</g>
<!-- Country&#45;&gt;Address -->
<g id="edge12" class="edge"><title>Country&#45;&gt;Address</title>
<path fill="none" stroke="#b63cae" d="M446,-187.926C446,-173.224 446,-155.041 446,-140.044"/>
<ellipse fill="none" stroke="#b63cae" cx="446" cy="-192.407" rx="4" ry="4"/>
<polygon fill="#b63cae" stroke="#b63cae" points="446,-139.783 450.5,-129.783 446,-134.783 446,-129.783 446,-129.783 446,-129.783 446,-134.783 441.5,-129.783 446,-139.783 446,-139.783"/>
</g>
</g>
</svg>
