<?xml version="1.0" encoding="UTF-8" standalone="no"?>
<!DOCTYPE svg PUBLIC "-//W3C//DTD SVG 1.1//EN"
 "http://www.w3.org/Graphics/SVG/1.1/DTD/svg11.dtd">
<!-- Generated by graphviz version 2.26.3 (20100126.1600)
 -->
<!-- Title: models_diagram Pages: 1 -->
<svg width="888pt" height="1054pt"
 viewBox="0.00 0.00 888.00 1054.00" xmlns="http://www.w3.org/2000/svg" xmlns:xlink="http://www.w3.org/1999/xlink">
<g id="graph1" class="graph" transform="scale(1 1) rotate(0) translate(4 1050)">
<title>models_diagram</title>
<polygon fill="none" stroke="none" points="-4,5 -4,-1050 885,-1050 885,5 -4,5"/>
<!-- _diagram_info -->
<g id="node1" class="node"><title>_diagram_info</title>
<text text-anchor="start" x="44" y="-923.8" font-family="Times Roman,serif" font-size="13.00">Models diagram</text>
<text text-anchor="start" x="44" y="-906.8" font-family="Times Roman,serif" font-size="13.00">Date: Nov 26 2015 &#45; 11:51</text>
<text text-anchor="start" x="44" y="-889.8" font-family="Times Roman,serif" font-size="13.00">Migration version: 20151125115824</text>
<text text-anchor="start" x="44" y="-872.8" font-family="Times Roman,serif" font-size="13.00">Generated by RailRoady 1.4.1</text>
<text text-anchor="start" x="44" y="-855.8" font-family="Times Roman,serif" font-size="13.00">http://railroady.prestonlee.com</text>
</g>
<!-- Feed -->
<g id="node2" class="node"><title>Feed</title>
<polyline fill="none" stroke="black" points="454,-352 642,-352 "/>
<path fill="none" stroke="black" d="M642,-352C648,-352 654,-358 654,-364"/>
<polyline fill="none" stroke="black" points="654,-364 654,-536 "/>
<path fill="none" stroke="black" d="M654,-536C654,-542 648,-548 642,-548"/>
<polyline fill="none" stroke="black" points="642,-548 454,-548 "/>
<path fill="none" stroke="black" d="M454,-548C448,-548 442,-542 442,-536"/>
<polyline fill="none" stroke="black" points="442,-536 442,-364 "/>
<path fill="none" stroke="black" d="M442,-364C442,-358 448,-352 454,-352"/>
<text text-anchor="middle" x="548" y="-531.4" font-family="Times Roman,serif" font-size="14.00">Feed</text>
<polyline fill="none" stroke="black" points="442,-522 654,-522 "/>
<text text-anchor="start" x="450" y="-505.4" font-family="Times Roman,serif" font-size="14.00">id :int(11)</text>
<text text-anchor="start" x="450" y="-487.4" font-family="Times Roman,serif" font-size="14.00">user_id :int(11)</text>
<text text-anchor="start" x="450" y="-469.4" font-family="Times Roman,serif" font-size="14.00">feedable_type :varchar(255)</text>
<text text-anchor="start" x="450" y="-451.4" font-family="Times Roman,serif" font-size="14.00">feedable_id :int(11)</text>
<text text-anchor="start" x="450" y="-433.4" font-family="Times Roman,serif" font-size="14.00">message :varchar(255)</text>
<text text-anchor="start" x="450" y="-415.4" font-family="Times Roman,serif" font-size="14.00">description :text</text>
<text text-anchor="start" x="450" y="-397.4" font-family="Times Roman,serif" font-size="14.00">action_trigger :varchar(255)</text>
<text text-anchor="start" x="450" y="-379.4" font-family="Times Roman,serif" font-size="14.00">created_at :datetime</text>
<text text-anchor="start" x="450" y="-361.4" font-family="Times Roman,serif" font-size="14.00">updated_at :datetime</text>
</g>
<!-- Post -->
<g id="node3" class="node"><title>Post</title>
<polyline fill="none" stroke="black" points="262,-352 412,-352 "/>
<path fill="none" stroke="black" d="M412,-352C418,-352 424,-358 424,-364"/>
<polyline fill="none" stroke="black" points="424,-364 424,-536 "/>
<path fill="none" stroke="black" d="M424,-536C424,-542 418,-548 412,-548"/>
<polyline fill="none" stroke="black" points="412,-548 262,-548 "/>
<path fill="none" stroke="black" d="M262,-548C256,-548 250,-542 250,-536"/>
<polyline fill="none" stroke="black" points="250,-536 250,-364 "/>
<path fill="none" stroke="black" d="M250,-364C250,-358 256,-352 262,-352"/>
<text text-anchor="middle" x="337" y="-531.4" font-family="Times Roman,serif" font-size="14.00">Post</text>
<polyline fill="none" stroke="black" points="250,-522 424,-522 "/>
<text text-anchor="start" x="258" y="-505.4" font-family="Times Roman,serif" font-size="14.00">id :int(11)</text>
<text text-anchor="start" x="258" y="-487.4" font-family="Times Roman,serif" font-size="14.00">title :varchar(255)</text>
<text text-anchor="start" x="258" y="-469.4" font-family="Times Roman,serif" font-size="14.00">description :text</text>
<text text-anchor="start" x="258" y="-451.4" font-family="Times Roman,serif" font-size="14.00">status :varchar(255)</text>
<text text-anchor="start" x="258" y="-433.4" font-family="Times Roman,serif" font-size="14.00">published_at :datetime</text>
<text text-anchor="start" x="258" y="-415.4" font-family="Times Roman,serif" font-size="14.00">views_count :int(11)</text>
<text text-anchor="start" x="258" y="-397.4" font-family="Times Roman,serif" font-size="14.00">user_id :int(11)</text>
<text text-anchor="start" x="258" y="-379.4" font-family="Times Roman,serif" font-size="14.00">created_at :datetime</text>
<text text-anchor="start" x="258" y="-361.4" font-family="Times Roman,serif" font-size="14.00">updated_at :datetime</text>
</g>
<!-- User -->
<g id="node4" class="node"><title>User</title>
<polyline fill="none" stroke="black" points="316,-741 562,-741 "/>
<path fill="none" stroke="black" d="M562,-741C568,-741 574,-747 574,-753"/>
<polyline fill="none" stroke="black" points="574,-753 574,-1033 "/>
<path fill="none" stroke="black" d="M574,-1033C574,-1039 568,-1045 562,-1045"/>
<polyline fill="none" stroke="black" points="562,-1045 316,-1045 "/>
<path fill="none" stroke="black" d="M316,-1045C310,-1045 304,-1039 304,-1033"/>
<polyline fill="none" stroke="black" points="304,-1033 304,-753 "/>
<path fill="none" stroke="black" d="M304,-753C304,-747 310,-741 316,-741"/>
<text text-anchor="middle" x="439" y="-1028.4" font-family="Times Roman,serif" font-size="14.00">User</text>
<polyline fill="none" stroke="black" points="304,-1019 574,-1019 "/>
<text text-anchor="start" x="312" y="-1002.4" font-family="Times Roman,serif" font-size="14.00">id :int(11)</text>
<text text-anchor="start" x="312" y="-984.4" font-family="Times Roman,serif" font-size="14.00">name :varchar(255)</text>
<text text-anchor="start" x="312" y="-966.4" font-family="Times Roman,serif" font-size="14.00">created_at :datetime</text>
<text text-anchor="start" x="312" y="-948.4" font-family="Times Roman,serif" font-size="14.00">updated_at :datetime</text>
<text text-anchor="start" x="312" y="-930.4" font-family="Times Roman,serif" font-size="14.00">email :varchar(255)</text>
<text text-anchor="start" x="312" y="-912.4" font-family="Times Roman,serif" font-size="14.00">encrypted_password :varchar(255)</text>
<text text-anchor="start" x="312" y="-894.4" font-family="Times Roman,serif" font-size="14.00">reset_password_token :varchar(255)</text>
<text text-anchor="start" x="312" y="-876.4" font-family="Times Roman,serif" font-size="14.00">reset_password_sent_at :datetime</text>
<text text-anchor="start" x="312" y="-858.4" font-family="Times Roman,serif" font-size="14.00">remember_created_at :datetime</text>
<text text-anchor="start" x="312" y="-840.4" font-family="Times Roman,serif" font-size="14.00">sign_in_count :int(11)</text>
<text text-anchor="start" x="312" y="-822.4" font-family="Times Roman,serif" font-size="14.00">current_sign_in_at :datetime</text>
<text text-anchor="start" x="312" y="-804.4" font-family="Times Roman,serif" font-size="14.00">last_sign_in_at :datetime</text>
<text text-anchor="start" x="312" y="-786.4" font-family="Times Roman,serif" font-size="14.00">current_sign_in_ip :varchar(255)</text>
<text text-anchor="start" x="312" y="-768.4" font-family="Times Roman,serif" font-size="14.00">last_sign_in_ip :varchar(255)</text>
<text text-anchor="start" x="312" y="-750.4" font-family="Times Roman,serif" font-size="14.00">ref_uid :varchar(255)</text>
</g>
<!-- User&#45;&gt;Feed -->
<g id="edge2" class="edge"><title>User&#45;&gt;Feed</title>
<path fill="none" stroke="#a1af5c" d="M478.379,-732.957C492.678,-674.842 508.485,-610.598 521.418,-558.033"/>
<ellipse fill="none" stroke="#a1af5c" cx="477.391" cy="-736.97" rx="4.00001" ry="4.00001"/>
<polygon fill="#a1af5c" stroke="#a1af5c" points="521.493,-557.731 528.252,-549.095 522.687,-552.875 523.882,-548.02 523.882,-548.02 523.882,-548.02 522.687,-552.875 519.512,-546.945 521.493,-557.731 521.493,-557.731"/>
</g>
<!-- User&#45;&gt;Post -->
<g id="edge6" class="edge"><title>User&#45;&gt;Post</title>
<path fill="none" stroke="#ab22d9" d="M402.15,-732.957C388.77,-674.842 373.977,-610.598 361.874,-558.033"/>
<ellipse fill="none" stroke="#ab22d9" cx="403.071" cy="-736.956" rx="4.00001" ry="4.00001"/>
<polygon fill="#ab22d9" stroke="#ab22d9" points="361.813,-557.765 363.954,-547.011 360.691,-552.893 359.569,-548.02 359.569,-548.02 359.569,-548.02 360.691,-552.893 355.184,-549.03 361.813,-557.765 361.813,-557.765"/>
</g>
<!-- Address -->
<g id="node6" class="node"><title>Address</title>
<polyline fill="none" stroke="black" points="683.5,-343 868.5,-343 "/>
<path fill="none" stroke="black" d="M868.5,-343C874.5,-343 880.5,-349 880.5,-355"/>
<polyline fill="none" stroke="black" points="880.5,-355 880.5,-545 "/>
<path fill="none" stroke="black" d="M880.5,-545C880.5,-551 874.5,-557 868.5,-557"/>
<polyline fill="none" stroke="black" points="868.5,-557 683.5,-557 "/>
<path fill="none" stroke="black" d="M683.5,-557C677.5,-557 671.5,-551 671.5,-545"/>
<polyline fill="none" stroke="black" points="671.5,-545 671.5,-355 "/>
<path fill="none" stroke="black" d="M671.5,-355C671.5,-349 677.5,-343 683.5,-343"/>
<text text-anchor="middle" x="776" y="-540.4" font-family="Times Roman,serif" font-size="14.00">Address</text>
<polyline fill="none" stroke="black" points="671.5,-531 880.5,-531 "/>
<text text-anchor="start" x="679.5" y="-514.4" font-family="Times Roman,serif" font-size="14.00">id :int(11)</text>
<text text-anchor="start" x="679.5" y="-496.4" font-family="Times Roman,serif" font-size="14.00">city :varchar(255)</text>
<text text-anchor="start" x="679.5" y="-478.4" font-family="Times Roman,serif" font-size="14.00">country_id :int(11)</text>
<text text-anchor="start" x="679.5" y="-460.4" font-family="Times Roman,serif" font-size="14.00">address_line1 :varchar(255)</text>
<text text-anchor="start" x="679.5" y="-442.4" font-family="Times Roman,serif" font-size="14.00">state :varchar(255)</text>
<text text-anchor="start" x="679.5" y="-424.4" font-family="Times Roman,serif" font-size="14.00">latitude :float</text>
<text text-anchor="start" x="679.5" y="-406.4" font-family="Times Roman,serif" font-size="14.00">longitude :float</text>
<text text-anchor="start" x="679.5" y="-388.4" font-family="Times Roman,serif" font-size="14.00">user_id :int(11)</text>
<text text-anchor="start" x="679.5" y="-370.4" font-family="Times Roman,serif" font-size="14.00">created_at :datetime</text>
<text text-anchor="start" x="679.5" y="-352.4" font-family="Times Roman,serif" font-size="14.00">updated_at :datetime</text>
</g>
<!-- User&#45;&gt;Address -->
<g id="edge8" class="edge"><title>User&#45;&gt;Address</title>
<path fill="none" stroke="#553bf3" d="M580.573,-788.935C610.254,-762.791 639.608,-733.213 663,-702 693.847,-660.84 718.685,-609.923 737.132,-564.656"/>
<ellipse fill="none" stroke="#553bf3" cx="577.251" cy="-791.832" rx="4.00002" ry="4.00002"/>
<ellipse fill="#553bf3" stroke="#553bf3" cx="738.66" cy="-560.861" rx="4.00001" ry="4.00001"/>
</g>
<!-- Visit -->
<g id="node7" class="node"><title>Visit</title>
<polyline fill="none" stroke="black" points="11.5,-199 220.5,-199 "/>
<path fill="none" stroke="black" d="M220.5,-199C226.5,-199 232.5,-205 232.5,-211"/>
<polyline fill="none" stroke="black" points="232.5,-211 232.5,-689 "/>
<path fill="none" stroke="black" d="M232.5,-689C232.5,-695 226.5,-701 220.5,-701"/>
<polyline fill="none" stroke="black" points="220.5,-701 11.5,-701 "/>
<path fill="none" stroke="black" d="M11.5,-701C5.5,-701 -0.5,-695 -0.5,-689"/>
<polyline fill="none" stroke="black" points="-0.5,-689 -0.5,-211 "/>
<path fill="none" stroke="black" d="M-0.5,-211C-0.5,-205 5.5,-199 11.5,-199"/>
<text text-anchor="middle" x="116" y="-684.4" font-family="Times Roman,serif" font-size="14.00">Visit</text>
<polyline fill="none" stroke="black" points="-0.5,-675 232.5,-675 "/>
<text text-anchor="start" x="7.5" y="-658.4" font-family="Times Roman,serif" font-size="14.00">id :binary(16)</text>
<text text-anchor="start" x="7.5" y="-640.4" font-family="Times Roman,serif" font-size="14.00">visitor_id :binary(16)</text>
<text text-anchor="start" x="7.5" y="-622.4" font-family="Times Roman,serif" font-size="14.00">ip :varchar(255)</text>
<text text-anchor="start" x="7.5" y="-604.4" font-family="Times Roman,serif" font-size="14.00">user_agent :text</text>
<text text-anchor="start" x="7.5" y="-586.4" font-family="Times Roman,serif" font-size="14.00">referrer :text</text>
<text text-anchor="start" x="7.5" y="-568.4" font-family="Times Roman,serif" font-size="14.00">landing_page :text</text>
<text text-anchor="start" x="7.5" y="-550.4" font-family="Times Roman,serif" font-size="14.00">user_id :int(11)</text>
<text text-anchor="start" x="7.5" y="-532.4" font-family="Times Roman,serif" font-size="14.00">referring_domain :varchar(255)</text>
<text text-anchor="start" x="7.5" y="-514.4" font-family="Times Roman,serif" font-size="14.00">search_keyword :varchar(255)</text>
<text text-anchor="start" x="7.5" y="-496.4" font-family="Times Roman,serif" font-size="14.00">browser :varchar(255)</text>
<text text-anchor="start" x="7.5" y="-478.4" font-family="Times Roman,serif" font-size="14.00">os :varchar(255)</text>
<text text-anchor="start" x="7.5" y="-460.4" font-family="Times Roman,serif" font-size="14.00">device_type :varchar(255)</text>
<text text-anchor="start" x="7.5" y="-442.4" font-family="Times Roman,serif" font-size="14.00">screen_height :int(11)</text>
<text text-anchor="start" x="7.5" y="-424.4" font-family="Times Roman,serif" font-size="14.00">screen_width :int(11)</text>
<text text-anchor="start" x="7.5" y="-406.4" font-family="Times Roman,serif" font-size="14.00">country :varchar(255)</text>
<text text-anchor="start" x="7.5" y="-388.4" font-family="Times Roman,serif" font-size="14.00">region :varchar(255)</text>
<text text-anchor="start" x="7.5" y="-370.4" font-family="Times Roman,serif" font-size="14.00">city :varchar(255)</text>
<text text-anchor="start" x="7.5" y="-352.4" font-family="Times Roman,serif" font-size="14.00">postal_code :varchar(255)</text>
<text text-anchor="start" x="7.5" y="-334.4" font-family="Times Roman,serif" font-size="14.00">latitude :decimal(10,0)</text>
<text text-anchor="start" x="7.5" y="-316.4" font-family="Times Roman,serif" font-size="14.00">longitude :decimal(10,0)</text>
<text text-anchor="start" x="7.5" y="-298.4" font-family="Times Roman,serif" font-size="14.00">utm_source :varchar(255)</text>
<text text-anchor="start" x="7.5" y="-280.4" font-family="Times Roman,serif" font-size="14.00">utm_medium :varchar(255)</text>
<text text-anchor="start" x="7.5" y="-262.4" font-family="Times Roman,serif" font-size="14.00">utm_term :varchar(255)</text>
<text text-anchor="start" x="7.5" y="-244.4" font-family="Times Roman,serif" font-size="14.00">utm_content :varchar(255)</text>
<text text-anchor="start" x="7.5" y="-226.4" font-family="Times Roman,serif" font-size="14.00">utm_campaign :varchar(255)</text>
<text text-anchor="start" x="7.5" y="-208.4" font-family="Times Roman,serif" font-size="14.00">started_at :datetime</text>
</g>
<!-- User&#45;&gt;Visit -->
<g id="edge4" class="edge"><title>User&#45;&gt;Visit</title>
<path fill="none" stroke="#c1e362" d="M297.442,-742.129C296.628,-741.416 295.814,-740.706 295,-740 272.83,-720.772 260.108,-724.274 241,-702 240.374,-701.27 239.75,-700.537 239.129,-699.8"/>
<ellipse fill="none" stroke="#c1e362" cx="300.698" cy="-745.019" rx="4.00002" ry="4.00002"/>
<polygon fill="#c1e362" stroke="#c1e362" points="238.89,-699.508 236.037,-688.92 235.723,-695.64 232.555,-691.771 232.555,-691.771 232.555,-691.771 235.723,-695.64 229.073,-694.622 238.89,-699.508 238.89,-699.508"/>
</g>
<!-- Ahoy::Event -->
<g id="node5" class="node"><title>Ahoy::Event</title>
<polyline fill="none" stroke="black" points="51,-1 181,-1 "/>
<path fill="none" stroke="black" d="M181,-1C187,-1 193,-7 193,-13"/>
<polyline fill="none" stroke="black" points="193,-13 193,-131 "/>
<path fill="none" stroke="black" d="M193,-131C193,-137 187,-143 181,-143"/>
<polyline fill="none" stroke="black" points="181,-143 51,-143 "/>
<path fill="none" stroke="black" d="M51,-143C45,-143 39,-137 39,-131"/>
<polyline fill="none" stroke="black" points="39,-131 39,-13 "/>
<path fill="none" stroke="black" d="M39,-13C39,-7 45,-1 51,-1"/>
<text text-anchor="middle" x="116" y="-126.4" font-family="Times Roman,serif" font-size="14.00">Ahoy::Event</text>
<polyline fill="none" stroke="black" points="39,-117 193,-117 "/>
<text text-anchor="start" x="47" y="-100.4" font-family="Times Roman,serif" font-size="14.00">id :binary(16)</text>
<text text-anchor="start" x="47" y="-82.4" font-family="Times Roman,serif" font-size="14.00">visit_id :binary(16)</text>
<text text-anchor="start" x="47" y="-64.4" font-family="Times Roman,serif" font-size="14.00">user_id :int(11)</text>
<text text-anchor="start" x="47" y="-46.4" font-family="Times Roman,serif" font-size="14.00">name :varchar(255)</text>
<text text-anchor="start" x="47" y="-28.4" font-family="Times Roman,serif" font-size="14.00">properties :text</text>
<text text-anchor="start" x="47" y="-10.4" font-family="Times Roman,serif" font-size="14.00">time :datetime</text>
</g>
<!-- Visit&#45;&gt;Ahoy::Event -->
<g id="edge10" class="edge"><title>Visit&#45;&gt;Ahoy::Event</title>
<path fill="none" stroke="#7e272d" d="M116,-190.585C116,-177.559 116,-165.054 116,-153.371"/>
<ellipse fill="none" stroke="#7e272d" cx="116" cy="-194.92" rx="4" ry="4"/>
<polygon fill="#7e272d" stroke="#7e272d" points="116,-153.324 120.5,-143.324 116,-148.324 116,-143.324 116,-143.324 116,-143.324 116,-148.324 111.5,-143.324 116,-153.324 116,-153.324"/>
<text text-anchor="middle" x="160" y="-167.4" font-family="Times Roman,serif" font-size="14.00">ahoy_events</text>
</g>
<!-- Country -->
<g id="node8" class="node"><title>Country</title>
<polyline fill="none" stroke="black" points="705.5,-831 846.5,-831 "/>
<path fill="none" stroke="black" d="M846.5,-831C852.5,-831 858.5,-837 858.5,-843"/>
<polyline fill="none" stroke="black" points="858.5,-843 858.5,-943 "/>
<path fill="none" stroke="black" d="M858.5,-943C858.5,-949 852.5,-955 846.5,-955"/>
<polyline fill="none" stroke="black" points="846.5,-955 705.5,-955 "/>
<path fill="none" stroke="black" d="M705.5,-955C699.5,-955 693.5,-949 693.5,-943"/>
<polyline fill="none" stroke="black" points="693.5,-943 693.5,-843 "/>
<path fill="none" stroke="black" d="M693.5,-843C693.5,-837 699.5,-831 705.5,-831"/>
<text text-anchor="middle" x="776" y="-938.4" font-family="Times Roman,serif" font-size="14.00">Country</text>
<polyline fill="none" stroke="black" points="693.5,-929 858.5,-929 "/>
<text text-anchor="start" x="701.5" y="-912.4" font-family="Times Roman,serif" font-size="14.00">id :int(11)</text>
<text text-anchor="start" x="701.5" y="-894.4" font-family="Times Roman,serif" font-size="14.00">name :varchar(255)</text>
<text text-anchor="start" x="701.5" y="-876.4" font-family="Times Roman,serif" font-size="14.00">code :varchar(255)</text>
<text text-anchor="start" x="701.5" y="-858.4" font-family="Times Roman,serif" font-size="14.00">created_at :datetime</text>
<text text-anchor="start" x="701.5" y="-840.4" font-family="Times Roman,serif" font-size="14.00">updated_at :datetime</text>
</g>
<!-- Country&#45;&gt;Address -->
<g id="edge12" class="edge"><title>Country&#45;&gt;Address</title>
<path fill="none" stroke="#ba9838" d="M776,-822.862C776,-754.374 776,-648.876 776,-567.554"/>
<ellipse fill="none" stroke="#ba9838" cx="776" cy="-826.936" rx="4" ry="4"/>
<polygon fill="#ba9838" stroke="#ba9838" points="776,-567.257 780.5,-557.257 776,-562.257 776,-557.257 776,-557.257 776,-557.257 776,-562.257 771.5,-557.257 776,-567.257 776,-567.257"/>
</g>
</g>
</svg>
